<?xml version="1.0" encoding="UTF-8" standalone="no"?><!DOCTYPE svg PUBLIC "-//W3C//DTD SVG 1.1//EN" "http://www.w3.org/Graphics/SVG/1.1/DTD/svg11.dtd"><svg width="100%" height="100%" viewBox="0 0 24 18" version="1.1" xmlns="http://www.w3.org/2000/svg" xmlns:xlink="http://www.w3.org/1999/xlink" xml:space="preserve" style="fill-rule:evenodd;clip-rule:evenodd;stroke-linejoin:round;stroke-miterlimit:1.41421;"><g><g><clipPath id="_clip1"><rect x="0" y="0" width="24.015" height="18"/></clipPath><g clip-path="url(#_clip1)"><path d="M14.388,0.004c-0.502,0 -0.908,0.407 -0.908,0.908c0,0.157 0.034,0.303 0.108,0.431l3.403,5.893c0.156,0.272 0.45,0.456 0.786,0.456c0.337,0 0.63,-0.184 0.787,-0.456l3.402,-5.893c0.074,-0.128 0.108,-0.274 0.108,-0.431c0,-0.501 -0.406,-0.908 -0.908,-0.908l-6.778,0Z" style="fill:url(#_Radial2);fill-rule:nonzero;"/><path d="M22.662,0.496c0,0.218 0.176,0.393 0.394,0.394c0.217,-0.001 0.393,-0.176 0.393,-0.394c0,-0.217 -0.176,-0.393 -0.393,-0.393c-0.218,0 -0.394,0.176 -0.394,0.393m-0.103,0c0,-0.274 0.222,-0.496 0.497,-0.496c0.274,0 0.496,0.222 0.496,0.496c0,0.275 -0.222,0.497 -0.496,0.497c-0.275,0 -0.497,-0.222 -0.497,-0.497" style="fill:#c1272d;fill-rule:nonzero;"/><path d="M23.122,0.327c-0.02,-0.01 -0.114,-0.005 -0.139,-0.005l0,0.163l0.095,0c0.034,0 0.05,-0.005 0.059,-0.017c0.005,-0.009 0.011,-0.018 0.011,-0.054c0,-0.055 -0.009,-0.078 -0.026,-0.087m0.12,0.418l-0.047,0l-0.042,-0.018l-0.134,-0.168l-0.036,0l0,0.159c0,0.021 -0.008,0.027 -0.025,0.027l-0.034,0c-0.022,0 -0.029,-0.004 -0.029,-0.027l0,-0.446c0,-0.024 0.014,-0.025 0.029,-0.025l0.144,0c0.082,0 0.099,0.005 0.128,0.034c0.026,0.027 0.038,0.073 0.038,0.14c0,0.083 -0.034,0.13 -0.11,0.136l0.128,0.153c0.015,0.017 0.012,0.035 -0.01,0.035" style="fill:#c1272d;fill-rule:nonzero;"/><path d="M6.996,0.004c-0.387,0 -0.7,0.314 -0.7,0.701c0,0.12 0.027,0.236 0.083,0.332l4.234,7.334l0,-0.001l0.001,0.002l0,0c0.193,0.33 0.305,0.714 0.305,1.123c0,0.398 -0.105,0.771 -0.288,1.094l-3.682,6.379c-0.056,0.095 -0.084,0.211 -0.084,0.331c0,0.388 0.314,0.701 0.702,0.701l3.56,0c0.76,0 1.443,-0.382 1.8,-1l0.074,-0.128l3.54,-6.133l0.066,-0.114c0.181,-0.313 0.264,-0.67 0.264,-1.051c0,-0.396 -0.101,-0.771 -0.286,-1.09l-0.037,-0.064l-4.208,-7.288l-0.073,-0.128c-0.357,-0.618 -1.041,-1 -1.801,-1l-3.47,0Zm3.618,8.367l0,0.001l-0.001,-0.001l0.001,0Z" style="fill:url(#_Radial3);fill-rule:nonzero;"/><g><clipPath id="_clip4"><rect x="0" y="0" width="24.015" height="18"/></clipPath><g clip-path="url(#_clip4)"><path d="M3.53,9.366c-0.292,0 -0.55,0.097 -0.728,0.184l0,-0.997c0,-0.103 -0.043,-0.233 -0.21,-0.233l-0.243,0c-0.156,0 -0.237,0.049 -0.237,0.233l0,3.26c0,0.129 0.043,0.215 0.194,0.215l0.286,0c0.167,0 0.21,-0.091 0.21,-0.242l0,-1.235c0,-0.386 0.079,-0.518 0.46,-0.518c0.361,0 0.408,0.137 0.408,0.465l0,0.1l-0.001,0c0,0.052 0,0.112 0,0.178l0,1.01c0,0.162 0.054,0.242 0.195,0.242l0.285,0c0.167,0 0.21,-0.091 0.21,-0.242l0,-1.654c0,-0.351 -0.166,-0.766 -0.829,-0.766m1.925,1.067c0,-0.393 0.081,-0.527 0.469,-0.527c0.366,0 0.415,0.139 0.415,0.473l0,0.103l-0.884,0l0,-0.049Zm1.347,1.014c-0.064,0 -0.129,0.026 -0.188,0.037c-0.2,0.044 -0.421,0.086 -0.658,0.086c-0.129,0 -0.248,-0.027 -0.323,-0.059c-0.167,-0.075 -0.183,-0.285 -0.178,-0.555l1.315,0c0.189,0 0.226,-0.032 0.226,-0.328c0,-0.346 -0.032,-0.685 -0.199,-0.927c-0.156,-0.221 -0.425,-0.335 -0.873,-0.335c-0.474,0 -0.771,0.124 -0.932,0.356c-0.167,0.237 -0.216,0.555 -0.216,1.029c0,0.534 0.075,0.885 0.302,1.095c0.178,0.167 0.469,0.252 0.873,0.252c0.232,0 0.55,-0.021 0.814,-0.07c0.167,-0.027 0.194,-0.112 0.194,-0.237c0,-0.059 0,-0.124 -0.011,-0.178c-0.016,-0.07 -0.065,-0.166 -0.146,-0.166" style="fill:#ab208e;fill-rule:nonzero;"/><path d="M1.552,10.013l-0.581,0l0,1.083c0,0.253 0.01,0.35 0.032,0.393c0.016,0.028 0.043,0.043 0.081,0.043c0.151,0 0.317,-0.08 0.442,-0.08c0.118,0 0.145,0.091 0.145,0.15l0,0.194c0,0.2 -0.054,0.254 -0.226,0.27c-0.173,0.016 -0.291,0.027 -0.469,0.027c-0.572,0 -0.695,-0.21 -0.695,-0.851l0,-1.229l-0.151,0c-0.103,0 -0.13,-0.07 -0.13,-0.157l0,-0.232c0,-0.134 0.054,-0.177 0.146,-0.177l0.135,0l0,-0.437c0,-0.183 0.075,-0.237 0.231,-0.237l0.243,0c0.167,0 0.216,0.135 0.216,0.237l0,0.437l0.528,0c0.118,0 0.183,0.016 0.183,0.173l0,0.188c0,0.183 -0.033,0.205 -0.13,0.205" style="fill:#ab208e;fill-rule:nonzero;"/><path d="M14.24,16.301l0.413,0.699l0.391,0.226c0.054,0.031 0.065,0.071 0.034,0.124l-0.045,0.078c-0.034,0.06 -0.066,0.078 -0.13,0.041l-0.376,-0.217l-0.857,-0.01c-0.024,0 -0.046,-0.003 -0.063,-0.013c-0.045,-0.026 -0.034,-0.075 -0.017,-0.104l0.057,-0.098c0.031,-0.054 0.062,-0.061 0.105,-0.06l0.587,0.011l-0.302,-0.509c-0.023,-0.036 -0.031,-0.066 0.001,-0.12l0.046,-0.08c0.027,-0.047 0.065,-0.054 0.1,-0.034c0.022,0.012 0.044,0.045 0.056,0.066" style="fill:#e31e26;fill-rule:nonzero;"/><path d="M16.07,15.631l-0.044,0.077c-0.031,0.054 -0.07,0.058 -0.123,0.033l-0.767,-0.38c0.032,0.038 0.078,0.088 0.113,0.128c0.137,0.161 0.286,0.328 0.374,0.439c0.035,0.044 0.048,0.081 0.013,0.14l-0.027,0.048c-0.035,0.06 -0.072,0.065 -0.128,0.057c-0.14,-0.02 -0.36,-0.063 -0.569,-0.101c-0.053,-0.008 -0.117,-0.027 -0.166,-0.035l0.712,0.474c0.049,0.034 0.065,0.07 0.033,0.123l-0.044,0.077c-0.032,0.056 -0.071,0.085 -0.135,0.041l-1.004,-0.704c-0.062,-0.043 -0.046,-0.087 -0.021,-0.131l0.058,-0.1c0.029,-0.05 0.061,-0.067 0.109,-0.06c0.207,0.03 0.568,0.1 0.845,0.148c-0.18,-0.215 -0.423,-0.493 -0.551,-0.657c-0.03,-0.039 -0.032,-0.074 -0.002,-0.124l0.057,-0.1c0.026,-0.044 0.056,-0.08 0.124,-0.048l1.111,0.518c0.07,0.033 0.065,0.081 0.032,0.137" style="fill:#e31e26;fill-rule:nonzero;"/><path d="M16.64,14.679c-0.04,0.081 -0.063,0.128 -0.111,0.212c-0.039,0.068 -0.091,0.146 -0.146,0.202c-0.207,0.217 -0.457,0.147 -0.772,-0.034c-0.534,-0.308 -0.536,-0.535 -0.332,-0.889c0.049,-0.084 0.078,-0.127 0.129,-0.202c0.049,-0.072 0.078,-0.081 0.118,-0.058l0.06,0.035c0.066,0.037 0.081,0.061 0.047,0.119c-0.038,0.067 -0.067,0.095 -0.122,0.191c-0.034,0.058 -0.083,0.156 -0.089,0.213c-0.014,0.134 0.127,0.22 0.336,0.341c0.205,0.118 0.371,0.2 0.491,0.059c0.025,-0.03 0.058,-0.078 0.091,-0.134c0.055,-0.097 0.065,-0.135 0.104,-0.203c0.033,-0.057 0.061,-0.056 0.127,-0.018l0.06,0.035c0.04,0.023 0.046,0.054 0.009,0.131" style="fill:#e31e26;fill-rule:nonzero;"/><path d="M16.122,13.447l0.345,0.394c0.024,-0.042 0.051,-0.093 0.081,-0.145c0.033,-0.057 0.057,-0.093 0.087,-0.146l-0.513,-0.103Zm1.184,0.044l-0.058,0.1c-0.032,0.057 -0.069,0.057 -0.113,0.049l-0.273,-0.051c-0.043,0.079 -0.076,0.137 -0.123,0.217c-0.044,0.076 -0.083,0.144 -0.122,0.208l0.172,0.196c0.04,0.045 0.059,0.075 0.023,0.137l-0.049,0.084c-0.035,0.062 -0.057,0.061 -0.084,0.045c-0.011,-0.006 -0.029,-0.024 -0.048,-0.047l-0.824,-0.972c-0.045,-0.053 -0.058,-0.087 -0.02,-0.154l0.043,-0.075c0.039,-0.068 0.076,-0.073 0.142,-0.061l1.286,0.219l0.031,0.009c0.045,0.026 0.034,0.067 0.017,0.096" style="fill:#e31e26;fill-rule:nonzero;"/></g></g></g></g></g><defs><radialGradient id="_Radial2" cx="0" cy="0" r="1" gradientUnits="userSpaceOnUse" gradientTransform="matrix(12.5211,0,0,12.5211,11.0466,-2.36882)"><stop offset="0" style="stop-color:#f15a22;stop-opacity:1"/><stop offset="1" style="stop-color:#a92b31;stop-opacity:1"/></radialGradient><radialGradient id="_Radial3" cx="0" cy="0" r="1" gradientUnits="userSpaceOnUse" gradientTransform="matrix(23.5591,0,0,23.5591,1.37774,-0.0247814)"><stop offset="0" style="stop-color:#c6168d;stop-opacity:1"/><stop offset="1" style="stop-color:#5c2d91;stop-opacity:1"/></radialGradient></defs></svg>