<?xml version="1.0" encoding="UTF-8" standalone="no"?><!DOCTYPE svg PUBLIC "-//W3C//DTD SVG 1.1//EN" "http://www.w3.org/Graphics/SVG/1.1/DTD/svg11.dtd"><svg width="100%" height="100%" viewBox="0 0 24 18" version="1.1" xmlns="http://www.w3.org/2000/svg" xmlns:xlink="http://www.w3.org/1999/xlink" xml:space="preserve" style="fill-rule:evenodd;clip-rule:evenodd;stroke-linejoin:round;stroke-miterlimit:1.41421;"><g><g><clipPath id="_clip1"><rect x="0" y="0" width="23.862" height="18"/></clipPath><g clip-path="url(#_clip1)"><path d="M14.388,0.004c-0.502,0 -0.908,0.407 -0.908,0.908c0,0.157 0.034,0.303 0.108,0.431l3.402,5.893c0.157,0.272 0.451,0.456 0.787,0.456c0.337,0 0.629,-0.184 0.787,-0.456l3.402,-5.893c0.074,-0.128 0.108,-0.274 0.108,-0.431c0,-0.501 -0.406,-0.908 -0.908,-0.908l-6.778,0Z" style="fill:url(#_Radial2);fill-rule:nonzero;"/><path d="M22.662,0.496c0,0.218 0.176,0.394 0.394,0.394c0.217,0 0.393,-0.176 0.393,-0.394c0,-0.217 -0.176,-0.393 -0.393,-0.393c-0.218,0 -0.394,0.176 -0.394,0.393m-0.103,0c0,-0.274 0.222,-0.496 0.497,-0.496c0.274,0 0.496,0.222 0.496,0.496c0,0.274 -0.222,0.497 -0.496,0.497c-0.275,0 -0.497,-0.223 -0.497,-0.497" style="fill:#09a696;fill-rule:nonzero;"/><path d="M23.122,0.327c-0.02,-0.01 -0.114,-0.005 -0.139,-0.005l0,0.163l0.095,0c0.034,0 0.05,-0.005 0.059,-0.017c0.005,-0.009 0.01,-0.018 0.01,-0.054c0,-0.055 -0.008,-0.078 -0.025,-0.087m0.12,0.418l-0.047,0l-0.042,-0.018l-0.134,-0.168l-0.036,0l0,0.159c0,0.021 -0.008,0.027 -0.026,0.027l-0.032,0c-0.023,0 -0.03,-0.004 -0.03,-0.027l0,-0.446c0,-0.024 0.014,-0.025 0.03,-0.025l0.143,0c0.082,0 0.099,0.005 0.128,0.034c0.026,0.027 0.038,0.073 0.038,0.14c0,0.083 -0.034,0.13 -0.11,0.136l0.128,0.153c0.015,0.017 0.012,0.035 -0.01,0.035" style="fill:#09a696;fill-rule:nonzero;"/><clipPath id="_clip3"><path d="M6.996,0.004c-0.387,0 -0.701,0.314 -0.701,0.701c0,0.12 0.028,0.236 0.084,0.332l4.235,7.335c0.194,0.33 0.304,0.714 0.304,1.124c0,0.397 -0.104,0.77 -0.288,1.093l-3.681,6.378c-0.056,0.096 -0.084,0.212 -0.084,0.332c0,0.388 0.314,0.701 0.701,0.701l3.56,0c0.76,0 1.444,-0.382 1.801,-1l0.073,-0.128l3.541,-6.133l0.066,-0.114c0.176,-0.304 0.26,-0.652 0.264,-1.021l0,-0.058c-0.005,-0.386 -0.106,-0.75 -0.286,-1.062l-0.037,-0.064l-4.208,-7.288l-0.073,-0.128c-0.357,-0.618 -1.041,-1 -1.801,-1l-3.47,0Zm3.618,8.367l0,0.001l-0.001,-0.002l0.001,0.001Z"/></clipPath><g clip-path="url(#_clip3)"><rect x="6.295" y="0.004" width="10.576" height="17.996" style="fill:url(#_Radial4);fill-rule:nonzero;"/></g><g><clipPath id="_clip5"><rect x="0" y="0" width="23.862" height="18"/></clipPath><g clip-path="url(#_clip5)"><path d="M3.53,9.366c-0.292,0 -0.551,0.097 -0.729,0.183l0,-0.997c0,-0.102 -0.043,-0.232 -0.21,-0.232l-0.242,0c-0.156,0 -0.237,0.049 -0.237,0.232l0,3.261c0,0.129 0.043,0.215 0.194,0.215l0.285,0c0.167,0 0.21,-0.091 0.21,-0.242l0,-1.235c0,-0.386 0.08,-0.519 0.461,-0.519c0.36,0 0.408,0.138 0.408,0.466l0,0.101l-0.002,0c0.001,0.051 0.001,0.111 0.001,0.177l0,1.01c0,0.162 0.055,0.242 0.195,0.242l0.285,0c0.167,0 0.21,-0.091 0.21,-0.242l0,-1.654c0,-0.351 -0.167,-0.766 -0.829,-0.766m1.925,1.067c0,-0.393 0.081,-0.527 0.469,-0.527c0.366,0 0.414,0.139 0.414,0.473l0,0.103l-0.883,0l0,-0.049Zm1.347,1.014c-0.064,0 -0.129,0.026 -0.188,0.037c-0.2,0.043 -0.421,0.087 -0.658,0.087c-0.129,0 -0.248,-0.028 -0.323,-0.06c-0.167,-0.075 -0.183,-0.285 -0.178,-0.555l1.315,0c0.189,0 0.226,-0.032 0.226,-0.328c0,-0.346 -0.032,-0.685 -0.199,-0.927c-0.156,-0.221 -0.426,-0.335 -0.873,-0.335c-0.474,0 -0.771,0.124 -0.933,0.356c-0.167,0.237 -0.215,0.555 -0.215,1.029c0,0.534 0.075,0.885 0.301,1.095c0.179,0.167 0.47,0.252 0.874,0.252c0.231,0 0.55,-0.021 0.813,-0.07c0.168,-0.026 0.195,-0.112 0.195,-0.237c0,-0.059 0,-0.124 -0.011,-0.177c-0.016,-0.071 -0.065,-0.167 -0.146,-0.167" style="fill:#f99d1b;fill-rule:nonzero;"/><path d="M1.552,10.013l-0.582,0l0,1.083c0,0.253 0.011,0.35 0.033,0.393c0.016,0.028 0.043,0.044 0.08,0.044c0.152,0 0.318,-0.081 0.442,-0.081c0.119,0 0.146,0.091 0.146,0.15l0,0.194c0,0.2 -0.054,0.254 -0.226,0.27c-0.173,0.016 -0.291,0.027 -0.469,0.027c-0.572,0 -0.695,-0.21 -0.695,-0.852l0,-1.228l-0.151,0c-0.103,0 -0.13,-0.07 -0.13,-0.156l0,-0.232c0,-0.135 0.054,-0.178 0.146,-0.178l0.135,0l0,-0.437c0,-0.183 0.075,-0.237 0.231,-0.237l0.243,0c0.167,0 0.215,0.135 0.215,0.237l0,0.437l0.529,0c0.118,0 0.183,0.016 0.183,0.172l0,0.189c0,0.183 -0.033,0.205 -0.13,0.205" style="fill:#f99d1b;fill-rule:nonzero;"/><path d="M14.24,16.301l0.413,0.699l0.39,0.226c0.055,0.031 0.065,0.071 0.035,0.124l-0.044,0.078c-0.035,0.06 -0.068,0.078 -0.131,0.041l-0.376,-0.217l-0.857,-0.01c-0.024,0 -0.047,-0.003 -0.063,-0.013c-0.045,-0.026 -0.034,-0.075 -0.017,-0.104l0.056,-0.098c0.032,-0.054 0.062,-0.061 0.106,-0.06l0.587,0.011l-0.303,-0.509c-0.022,-0.036 -0.03,-0.065 0.002,-0.12l0.046,-0.08c0.027,-0.047 0.065,-0.054 0.1,-0.034c0.021,0.012 0.044,0.045 0.056,0.066" style="fill:#00ab95;fill-rule:nonzero;"/><path d="M16.07,15.632l-0.044,0.076c-0.031,0.054 -0.07,0.058 -0.123,0.033l-0.767,-0.38c0.032,0.038 0.077,0.088 0.113,0.128c0.137,0.162 0.286,0.328 0.374,0.439c0.035,0.045 0.048,0.081 0.013,0.14l-0.027,0.048c-0.035,0.06 -0.072,0.066 -0.127,0.057c-0.141,-0.02 -0.361,-0.062 -0.57,-0.101c-0.053,-0.008 -0.118,-0.026 -0.166,-0.035l0.712,0.475c0.049,0.033 0.065,0.069 0.033,0.123l-0.044,0.076c-0.032,0.056 -0.071,0.085 -0.135,0.041l-1.004,-0.704c-0.062,-0.043 -0.046,-0.087 -0.021,-0.131l0.057,-0.099c0.03,-0.051 0.061,-0.068 0.11,-0.061c0.207,0.03 0.568,0.1 0.845,0.148c-0.181,-0.215 -0.422,-0.493 -0.551,-0.656c-0.03,-0.04 -0.032,-0.074 -0.003,-0.125l0.058,-0.1c0.025,-0.044 0.056,-0.08 0.124,-0.048l1.111,0.518c0.07,0.033 0.065,0.081 0.032,0.138" style="fill:#00ab95;fill-rule:nonzero;"/><path d="M16.64,14.679c-0.04,0.081 -0.062,0.128 -0.111,0.212c-0.039,0.067 -0.091,0.146 -0.145,0.202c-0.208,0.217 -0.459,0.147 -0.773,-0.034c-0.534,-0.308 -0.536,-0.535 -0.332,-0.889c0.049,-0.084 0.078,-0.127 0.129,-0.202c0.048,-0.072 0.078,-0.081 0.118,-0.058l0.06,0.035c0.065,0.037 0.08,0.061 0.047,0.119c-0.039,0.067 -0.067,0.095 -0.122,0.191c-0.034,0.058 -0.083,0.156 -0.089,0.212c-0.015,0.135 0.127,0.221 0.336,0.342c0.205,0.118 0.371,0.2 0.491,0.059c0.025,-0.03 0.058,-0.078 0.09,-0.134c0.056,-0.097 0.066,-0.135 0.104,-0.203c0.034,-0.057 0.062,-0.056 0.128,-0.018l0.059,0.035c0.04,0.023 0.047,0.054 0.01,0.131" style="fill:#00ab95;fill-rule:nonzero;"/><path d="M16.122,13.447l0.345,0.394c0.024,-0.042 0.051,-0.092 0.081,-0.145c0.033,-0.057 0.056,-0.094 0.087,-0.146l-0.513,-0.103Zm1.184,0.044l-0.058,0.1c-0.032,0.056 -0.069,0.057 -0.113,0.049l-0.273,-0.051c-0.043,0.079 -0.077,0.137 -0.123,0.217c-0.044,0.076 -0.083,0.144 -0.122,0.208l0.172,0.196c0.04,0.045 0.059,0.075 0.023,0.137l-0.048,0.084c-0.036,0.062 -0.058,0.061 -0.085,0.045c-0.011,-0.006 -0.029,-0.024 -0.048,-0.047l-0.824,-0.972c-0.045,-0.053 -0.059,-0.088 -0.02,-0.154l0.043,-0.075c0.039,-0.067 0.076,-0.073 0.142,-0.061l1.285,0.219l0.032,0.009c0.045,0.026 0.034,0.067 0.017,0.096" style="fill:#00ab95;fill-rule:nonzero;"/></g></g></g></g></g><defs><radialGradient id="_Radial2" cx="0" cy="0" r="1" gradientUnits="userSpaceOnUse" gradientTransform="matrix(12.5208,0,0,12.5208,11.0468,-2.36882)"><stop offset="0" style="stop-color:#3ac2cf;stop-opacity:1"/><stop offset="1" style="stop-color:#008c76;stop-opacity:1"/></radialGradient><radialGradient id="_Radial4" cx="0" cy="0" r="1" gradientUnits="userSpaceOnUse" gradientTransform="matrix(25.7708,0,0,25.7708,1.3775,-0.0247814)"><stop offset="0" style="stop-color:#fcaf16;stop-opacity:1"/><stop offset="1" style="stop-color:#dd5927;stop-opacity:1"/></radialGradient></defs></svg>